<?xml version="1.0" encoding="UTF-8"?>
<svg id="Layer_2" data-name="Layer 2" xmlns="http://www.w3.org/2000/svg" viewBox="0 0 540.97 568.35">
  <defs>
    <style>
      .cls-1 {
        fill: #626265;
      }

      .cls-1, .cls-2, .cls-3, .cls-4, .cls-5, .cls-6, .cls-7, .cls-8, .cls-9, .cls-10, .cls-11, .cls-12, .cls-13, .cls-14 {
        stroke-width: 0px;
      }

      .cls-2 {
        fill: #636467;
      }

      .cls-3 {
        fill: #a8aec9;
      }

      .cls-4 {
        fill: #bdc2d6;
      }

      .cls-5 {
        fill: #a7adc8;
      }

      .cls-6 {
        fill: #b1b6ce;
      }

      .cls-7 {
        fill: #adaeaf;
      }

      .cls-8 {
        fill: #bcc1d5;
      }

      .cls-9 {
        fill: #a7a7a9;
      }

      .cls-10 {
        fill: #bfc3d7;
      }

      .cls-11 {
        fill: #737476;
      }

      .cls-12 {
        fill: #fdfdfe;
      }

      .cls-13 {
        fill: #f1f2f6;
      }

      .cls-14 {
        fill: #e7e9f0;
      }
    </style>
  </defs>
  <g id="Layer_1-2" data-name="Layer 1">
    <path class="cls-2" d="m471.16,486.37c-8.93-12.53-21.99-17.22-36.47-18.91-26.3-3.06-52.07.23-77.66,6.43-19.86,4.81-39.53,10.73-60.09,12.11-1.92.13-3.84.83-6.9-.37,34.99-14.87,62.63-37.64,84.19-67.82.98-4.05.94-8.4,3.57-11.96,8.21-12.49,11.65-26.63,12.5-41.14,1.77-30.08-3.44-59.32-12.98-88.68-3.4,7.7-5.25,15.39-9.35,21.9-5.81,9.24-6.11,18.52-4.17,29.06,4.36,23.63,4.69,47.32-3.23,70.52-1.19,3.49-2.61,6.81-4.81,9.77-2.96,11.06-10.1,19.6-16.93,28.37-5.16,6.63-10.92,12.46-18.88,15.69-5.4,2.91-10.65,6.13-16.21,8.67-25.15,11.45-49.87,10.65-74.02-3.09-2.58-1.47-5.2-2.87-7.8-4.3-17.12-9.83-28.18-24.88-36.39-42.36-.51-1.09-1.36-1.87-1.97-2.86-5.36-10.35-8.99-21.42-9.44-32.93-.37-9.26-.84-18.55-1.01-27.83,1.93-6.72,1.67-13.78,3.14-20.59,1.36-6.32,2.55-12.65,5.01-18.66,2.65-12.35,8.64-22.93,17.24-32.07,1.75-1.86,3.63-4.41,6.76-2.95,3.45,1.61,2.25,4.86,1.94,7.51-.67,5.61-1.82,11.15-3.02,16.68-.39,1.83-.59,3.58-.21,5.4.08,1.77-1.6,3.3-.66,5.54,8.78-6.22,17.24-12.69,24.81-20.09,25.32-24.72,46.17-52.84,62.84-84.08,2.48-4.65,3.37-8.59-.17-13.29-2.77-3.67-4.52-8.13-5.26-12.84-.59-3.79-2.65-5.4-6.66-4.77-6.12.95-12.27.99-18.36-.39-3.1-.7-5.48.17-5.8,3.62-.91,9.82-6.28,17.37-12.15,24.71-10.9,10.45-24.13,17.21-37.94,22.53-24.71,9.52-36.91,28.68-43.04,53.06-1.4,5.59-2.27,11.35-4.88,16.58-1.03,2.07.02,4.12-.03,6.19-3.95,11.61-4.75,23.76-5.94,35.81-.52,5.28-.83,10.57-1.72,15.83-.87,5.11-.79,10.27,1.98,14.97-.75,13.18,3.57,25.09,9.28,36.63,2.17,5.1,4.47,10.15,5.78,15.57,8.29,13.2,18.7,24.57,30.37,34.81,15.35,13.47,31.98,24.94,51.21,32.28.43.16.76.57,2.07,1.6-6.96.36-12.89-.61-18.77-1.39-18.53-2.45-36.19-8.65-54.34-12.79-26.04-5.94-52.27-8.01-78.72-3.56-11.05,1.86-21,6.36-27.89,15.87,1.29,3.53-1.79,6.02-2.17,9.16-1.75,13.07,3.6,22.8,13.88,30.5,14.35,10.73,30.76,15.83,48.29,16.79,26.17,1.43,52.15-.33,77.53-7.58,4.64-1.33,9.23-2.77,13.71-4.55,2.95-1.17,5.93-1.84,8.99-.38,6.67,4.71,13.37,9.36,19.98,14.15,1.7,1.23,4.74,2.23,4.39,4.3-.39,2.33-3.67,2.36-5.77,3.16-20.36,7.71-41.54,12.12-63.01,15.19-25.18,3.6-50.46,4.76-75.66.37-21.63-3.77-40.6-12.92-55.07-29.9-24.95-29.28-15.78-68.7,19.45-84.39,13.42-5.98,27.66-7,42.05-7.1,14.16-.1,28.24.85,43.33,4.13-2.9-3.44-5-5.92-7.08-8.41-20.16-24.17-29.8-52.03-29.32-83.45.52-33.74,6.04-66.55,17.3-98.45,10.39-29.42,29.19-50.35,58.76-61.22,7.82-2.88,15.33-6.48,22-11.63,13.53-10.44,15.7-25.45,5.19-38.89-8.84-11.31-17.36-22.79-24.06-35.52-2.33-4.43-4.57-8.91-4.92-14.04-.38-5.68,1.09-10.75,5.97-14,2.38-1.58,2.19-3.15,1.85-5.43-3.52-23.8,2.99-44.41,20.88-60.61,36.78-33.31,96.25-13.7,107.56,35.2,1.98,8.56,1.91,17.17,1.05,25.84-.17,1.73-.77,3.51,1.14,4.99,7.92,6.14,7.17,14.15,3.99,22.16-4.58,11.55-11.94,21.51-19.21,31.48-2.65,3.63-5.61,7.04-8.24,10.68-9.22,12.74-7.06,28.29,5.23,38.2,6.98,5.63,15.28,8.76,23.36,12.28,12.42,5.4,24.42,11.4,34.36,20.94,10.77,10.34,17.12,23.25,22.2,36.93,12.66,34.1,18.76,69.32,18.3,105.73-.41,32.04-11.28,59.88-32.4,83.83-.65.74-1.3,1.48-2.79,3.2,7.8-1.07,14.53-2.16,21.3-2.9,16.14-1.74,32.38-2.21,48.23,1.52,23.19,5.45,40.99,17.91,47.36,42.2,5.36,20.42-2.48,37.27-16.38,51.8-14.13,14.78-32.38,21.59-51.93,24.58-46.07,7.05-91.05,2.15-134.5-14.82-16.28-6.36-29.91-17.33-43.83-27.65-5.08-3.77-10.09-7.64-15.13-11.46-.88-3.34-3.97-3.58-6.47-4.66-.56-.35-1.12-.71-1.67-1.06-.22-1.75.5-2.55,2.29-2.26,2.64,1.8,5.61,2.31,8.74,2.19,19.83,2.8,38.32,10.04,56.85,17.17,11.08,4.04,22.48,7.04,33.81,10.29,25.7,7.36,52.02,9.32,78.54,7.84,18.26-1.02,35.99-4.84,50.79-16.8,6.59-5.32,11.98-11.53,13.73-20.19.74-3.67.79-7.26-.69-10.76-1.45-2.08-.97-4.41-.87-6.69Z"/>
    <path class="cls-1" d="m540.97,281.96c-.55,40.23-13.52,86.35-41.43,127.97-.65.97-1.24,1.98-1.98,2.88-3.88,4.67-9.1,6.07-13.21,3.6-4.32-2.59-5.4-7.28-2.96-13.25.63-1.53,1.41-3.03,2.28-4.44,16.71-26.89,25.11-56.63,28.17-87.72,8.95-90.78-21.73-165.4-92.87-222.95-10.89-8.81-22.92-16.02-35.09-22.94-4.28-2.43-7.37-5.76-7.87-10.86-1.08-11.13,9.01-17.95,19.92-13.13,10.21,4.51,19.94,10.04,29.18,16.31,53.81,36.51,89.8,85.98,107.09,148.72,5.95,21.58,8.87,43.71,8.75,75.79Z"/>
    <path class="cls-2" d="m.07,275.04C.68,193.4,32.32,126.16,94.22,73.14c14.84-12.72,31.26-23.24,48.92-31.73,6.88-3.31,13.49-2.43,17.97,2.31,6.28,6.64,4.67,16.05-4.03,21.01-15.39,8.77-29.99,18.62-43.46,30.12-49.4,42.2-77.73,95.6-84.64,160.2-4.35,40.72-.33,80.45,15.09,118.7,3.69,9.15,8.55,17.68,13.5,26.17.84,1.44,1.72,2.86,2.41,4.38,1.97,4.31,1.26,8.18-2.39,11.25-3.31,2.78-8.49,2.58-11.96-.51-1.59-1.42-2.94-3.19-4.12-4.98C19.99,377.61,5.97,342.32,1.49,303.5c-1.09-9.43-1.71-18.92-1.42-28.46Z"/>
    <path class="cls-9" d="m230.18,528.31c-5.33,1.86-10.61,3.92-16.01,5.55-32.34,9.77-65.32,12.97-98.7,7.41-17.57-2.93-33.5-10.22-44.82-24.86-5.46-7.06-7.56-15.09-4.56-23.92,1.84-2.31,4.16-1.71,6.38-.89,23.11,8.54,47.26,10.22,71.58,11.62,19.25,1.11,38.87,1.04,57.05,9.22,10.12,4.51,19.94,9.58,29.08,15.88Z"/>
    <path class="cls-10" d="m471.16,486.37c.97,1.68,1.95,3.36,2.92,5.04,1.08,4.5-2.27,5.34-5.3,6.19-11.87,3.3-23.94,5.62-36.13,7.36-7.57,1.08-15.18,1.7-22.82,1.97-26.11.94-52.08,2.97-77.44,9.84-8.98,2.43-18.11,4.33-27.02,7.04-3.36,1.02-6.85.98-10.32.66-18.68-6.32-37.36-12.63-56.04-18.95,16.97,1.1,33.91,1.17,50.65-2.31,16.29-3.39,32.34-7.74,48.28-12.53,30.67-9.23,62.07-13.34,94.06-12.08,12.42.49,24.99,1.12,36.3,7.46.89.5,1.85.75,2.86.3Z"/>
    <path class="cls-10" d="m201.1,512.43c-22.48-5.03-45.37-5.77-68.25-7.19-21.21-1.31-42.44-3.44-62.42-11.77-1.35-.56-2.9-.68-4.35-1,.24-3.2,2.05-5.65,3.86-8.1,2.06,1.32,3.86-.05,5.69-.61,9.29-2.88,18.73-4.59,28.5-4.23,4.36.16,8.79.52,12.65,2.52,17.32,8.99,36.39,12.71,54.75,18.55,10.14,3.23,20.36,6.26,29.56,11.83Z"/>
    <path class="cls-5" d="m157.89,403.49c-5.72-11.66-9.53-23.83-9.87-36.93.38-3.75-.18-7.51.06-11.25.11-1.74-.62-3.85,1.6-4.83,2.24-.99,3.78.18,5.12,1.89,1.57,2.01,3.73,2.99,6.17,2.39,3.96-.97,7.51-.17,10.83,2.12,1.39-2.29.54-4.52.96-6.59.38-1.87.25-4.2,3.29-3.76.22,9.59-.54,19.18.51,28.76,1.23,11.32,5,21.88,9.38,32.28-.5,2.47-.24,5-.9,7.51-1.95,7.5-7.5,10.26-14.02,5.45-1.35-1.3-2.7-2.6-4.05-3.91-4.12-3.61-6.02-8.77-9.06-13.13Z"/>
    <path class="cls-3" d="m319.93,451.33c14.64-12.07,25.66-26.95,34.1-43.83,1.26-.83,2.69-1.8,4.1-.82,3.66,2.54,7.79,2.31,11.9,2.44,2.37.08,4.6.53,6.11,2.63.57,2.57-1.22,3.71-2.96,4.88-12.03,16.84-29.27,26.23-48,33.43-1.67.64-3.5.86-5.25,1.28Z"/>
    <path class="cls-6" d="m171,420.52c9,.63,9.25.46,12.31-8.29.6-1.71,1.04-3.5,2.61-4.67,8.67,16.44,19.81,30.9,34.26,42.71.73.59,1.15,1.55,1.72,2.34-9.13-1.7-17.02-6.4-24.86-10.92-9.75-5.64-18.94-12.17-26.04-21.17Z"/>
    <path class="cls-14" d="m157.89,403.49c3.73,3.88,6.46,8.46,9.06,13.13-.31.31-.62.63-.93.94-3.58-4.19-6.07-9-8.14-14.07Z"/>
    <path class="cls-11" d="m229.65,506.65c2.78.69,7.65-1.53,6.47,4.66-2.39-1.24-4.57-2.75-6.47-4.66Z"/>
    <path class="cls-13" d="m373.19,416.63c.89-1.39,1.79-2.77,2.68-4.16-.8-3.49-.04-5.66,4.15-4.97-1,3.96-3.42,7.13-5.81,10.32-.34-.4-.68-.79-1.03-1.19Z"/>
    <path class="cls-11" d="m230.27,503.33c-.76.75-1.52,1.51-2.29,2.26-1.64-.91-3.24-1.88-4.63-3.75,2.9-.4,4.92.5,6.91,1.49Z"/>
    <path class="cls-4" d="m323.9,215.74c12.43,4.84,24.11,11.24,35.95,17.29,2.71,1.39,1.94,3.37,1.36,5.53-10.28,38.56-26.91,74.05-50.94,106.02-22.64,30.11-49.9,54.78-83.29,72.56-4.44,2.36-6.48,1.58-9.19-2.29-8.82-12.61-15.14-26.18-17.54-41.46,2-3.73,5.73-5.43,9-7.66,14.2-9.68,26.84-21.02,38.67-33.57,18.5-19.63,33.51-41.68,47.65-64.44,9.06-14.58,16.28-30.12,23.57-45.62,1.12-2.39,1.07-5.83,4.76-6.37Z"/>
    <path class="cls-12" d="m223.51,78.17c.19-12.09,2.19-21.78,7.08-30.76,8.33-15.3,21.01-23.86,38.61-24.07,17.79-.21,30.74,8.6,39.88,23.26,5.91,9.47,7.53,20.15,7.12,31.2-.85,22.84-8.19,43.1-24.49,59.48-13.18,13.24-29.62,13.32-43.02.24-17.14-16.74-23.93-37.91-25.16-59.34Z"/>
    <path class="cls-8" d="m201.08,302.52c1.44-9.46,2.88-18.93,4.33-28.39-.43-.21-.86-.41-1.29-.62-10.96,8.75-16.41,21.12-21.12,33.97-2.66,3.83-5.37,3.36-9.68,1.82-5.89-2.09-11.47-3.85-15.11-9.29-1.02-1.52-4.31.57-4.31-2.66,3.01-14.66,6.6-29.15,12.72-42.89,6.3-14.12,16.6-24.24,30.6-30.72,7.39-3.41,14.72-6.95,22.07-10.44,8.01-3.81,15.3-8.67,21.59-14.96,2.88.57,3.22,3.14,3.98,5.26,6.31,17.7,3.56,34.8-3.84,51.44-7.92,17.8-20.17,32.43-34.32,45.57-1.52,1.41-3.04,3.36-5.61,1.91Z"/>
    <path class="cls-9" d="m295.05,524.47c4.44-2.45,9.47-3.09,14.25-4.42,27.63-7.67,55.49-13.91,84.37-14.74,25.15-.72,50.15-3.2,74.49-10.14,2.32-.66,5.15-.63,5.92-3.77,3.49,8.72,1.58,16.75-3.64,24.04-11.33,15.83-27.85,23.02-46.26,25.87-33.04,5.1-65.72,2.43-97.86-6.65-10.55-2.98-21.26-5.53-31.27-10.19Z"/>
    <path class="cls-12" d="m201.08,302.52c14.41-13.01,27.27-27.28,35.93-44.88,8.87-18.01,12.08-36.52,4.64-55.91-.41-1.07-.53-2.26-.78-3.39,6.72-7.9,11.83-16.5,11.75-27.32-.02-2.32.69-3.34,3.3-2.58,9.3,2.67,18.7,2.83,28.1.49,2.25-.56,2.89.15,3.11,2.33.8,8.29,3.33,15.94,9.19,22.14,2.13,2.25.32,4.05-.59,5.84-12.87,25.52-28.78,48.97-47.56,70.53-12.3,14.11-25.84,26.8-40.86,37.94-1.6,1.19-3.24,2.32-4.9,3.44-.39.26-.9.33-1.89.69-.46-3.29-.28-6.3.57-9.31Z"/>
    <path class="cls-7" d="m380.02,407.5c-2.01,1.14-2.63,3.43-4.15,4.97-3.6-.68-7.25-1.43-10.88-.92-4.5.64-7.24-2.9-10.95-4.05,8.06-18.51,11.16-37.85,9.93-57.97-.68-11.15-2.1-22.19-4.48-33.09-.75-3.44-.5-6.35,1.3-9.49,5.87-10.29,9.97-21.4,14.23-32.42.59-1.53,1.27-3.02,1.88-4.47,1.65.07,1.57,1.35,1.84,2.15,10.02,29.57,15.61,59.89,14.12,91.2-.74,15.6-4.42,30.6-12.83,44.09Z"/>
    <path class="cls-12" d="m323.9,215.74c-7.18,20.17-17.45,38.81-28.5,57.03-16.18,26.71-34.8,51.57-57.49,73.15-9.52,9.05-19.59,17.53-30.94,24.31-2.14,1.28-4.16,2.78-6.72,3.18-1.65-8.58-1.13-17.26-1.16-25.91,0-2.28.91-3.73,2.76-4.89,49.31-31.3,83.83-75.83,112.38-125.68q3.24-5.66,9.67-1.17Z"/>
    <path class="cls-9" d="m339.44,345.88c2.6,14.2,1.98,27.12-2.3,39.84-7.25,21.56-19.76,39.32-39.2,51.35-16.75,10.37-34.44,11.53-52.31,2.27-1-.52-2.43-.82-2.55-2.14-.13-1.42,1.32-1.77,2.3-2.28,38.9-20.19,68.02-50.76,92.13-86.67.36-.53.81-1,1.94-2.38Z"/>
    <path class="cls-6" d="m153.89,297.35c2.49-.07,3.05-2.83,5.44-3.82,1.1,5.34,3.31,10.78,9,11.42,4.98.56,9.16,5.69,14.66,2.53-3.45,12.81-5.66,25.85-6.96,39.04-2.27,5.66.06,11.77-1.69,18.28-1.41-1.82-2.45-3.16-3.48-4.5-2.22-2.9-4.97-4.39-8.64-3.05-4.15,1.51-7.43.86-9.53-3.37-.44-.89-1.15-1.82-2.28-1.5-1.1.32-1.16,1.47-1.28,2.46-.47,3.9.81,7.96-1.12,11.72-1.72-10.45-.56-20.9.15-31.33.88-12.76,2.4-25.46,5.71-37.87Z"/>
  </g>
</svg>